
<svg xmlns="http://www.w3.org/2000/svg" style="display: none;">
  <symbol id="logo" viewBox="0 0 217 71">
    <path fill="#006552" d="M6.34 35.86V6.34h21.09v4.22h4.22v4.21h4.21v12.66h-4.21v4.22h-4.22v4.21H6.34Zm8.44-4.21h8.44v-4.22h4.21V14.77h-4.21v-4.21h-8.44v21.09Z"/>
    <path fill="#00805F" d="M4.22 33.74V4.22H25.3v4.21h4.21v4.22h4.22v12.66h-4.22v4.21h-4.21v4.22H4.2Zm8.43-4.21h8.44V25.3h4.22V12.65h-4.22V8.44h-8.44v21.09Z"/>
    <path fill="#009369" d="M2.12 31.65V2.12H23.2v4.22h4.21v4.21h4.22v12.66h-4.22v4.21h-4.21v4.22H2.1Zm8.44-4.22H19V23.2h4.21V10.56H19V6.34h-8.44v21.09Z"/>
    <path fill="#E8FF6C" d="M0 29.53V0h21.09v4.22h4.22v4.21h4.21V21.1h-4.21v4.22h-4.22v4.21H0Zm8.44-4.22h8.44v-4.22h4.21V8.44h-4.21V4.22H8.44v21.09Z"/>
    <path fill="#006552" d="M44.3 35.86v-4.21h-4.22V14.77h8.44v16.88h12.66V14.77h8.43v21.1h-25.3Z"/>
    <path fill="#00805F" d="M42.18 33.74v-4.21h-4.22V12.65h8.44v16.88h12.66V12.65h8.44v21.1H42.19Z"/>
    <path fill="#009369" d="M40.08 31.65v-4.22h-4.21V10.56h8.44v16.87h12.65V10.56h8.44v21.09H40.09Z"/>
    <path fill="#E8FF6C" d="M37.96 29.53V25.3h-4.22V8.44h8.44V25.3h12.66V8.44h8.43v21.09H37.96Z"/>
    <path fill="#006552" d="M78.04 35.86v-4.21h-4.21V18.99h4.21v-4.22h21.1V19h4.2v8.43H82.27v4.22h16.87v4.22H78.04Zm4.22-12.65h12.66v-4.22H82.26v4.22Z"/>
    <path fill="#00805F" d="M75.92 33.74v-4.21h-4.21V16.87h4.21v-4.22h21.1v4.22h4.21v8.44H80.14v4.21h16.87v4.22H75.92Zm4.22-12.65H92.8v-4.22H80.14v4.22Z"/>
    <path fill="#009369" d="M73.83 31.65v-4.22H69.6V14.77h4.22v-4.21h21.09v4.21h4.21v8.44H78.04v4.21h16.88v4.22h-21.1Zm4.21-12.66H90.7v-4.22H78.04V19Z"/>
    <path fill="#E8FF6C" d="M71.7 29.53V25.3H67.5V12.65h4.21V8.44h21.1v4.21H97v8.44H75.93v4.22H92.8v4.21H71.7Zm4.22-12.66h12.66v-4.22H75.92v4.22Z"/>
    <path fill="#006552" d="M104.84 35.86v-4.21h8.44v-21.1h-4.22v-4.2h12.66v25.3h8.43v4.21H104.84Z"/>
    <path fill="#00805F" d="M102.72 33.74v-4.21h8.44V8.43h-4.22v-4.2h12.66v25.3h8.43v4.21H102.72Z"/>
    <path fill="#009369" d="M100.62 31.65v-4.22h8.44V6.34h-4.22V2.12h12.66v25.3h8.44v4.22h-25.31Z"/>
    <path fill="#E8FF6C" d="M98.5 29.53V25.3h8.44V4.21h-4.22V0h12.66v25.3h8.43v4.22H98.5Z"/>
    <path fill="#006552" d="M136.85 35.86v-4.21h-4.22V18.99h4.22v-4.22h21.08V19h4.22v12.66h-4.22v4.21h-21.08Zm4.21-4.21h12.66V18.99h-12.66v12.66Z"/>
    <path fill="#00805F" d="M134.73 33.74v-4.21h-4.22V16.87h4.22v-4.22h21.09v4.22h4.21v12.66h-4.22v4.21h-21.08Zm4.21-4.21h12.66V16.87h-12.66v12.66Z"/>
    <path fill="#009369" d="M132.63 31.65v-4.22h-4.22V14.77h4.22v-4.21h21.09v4.21h4.21v12.66h-4.21v4.22h-21.1Zm4.22-4.22h12.65V14.77h-12.66v12.66Z"/>
    <path fill="#E8FF6C" d="M130.5 29.53V25.3h-4.21V12.65h4.21V8.44h21.1v4.21h4.21v12.66h-4.22v4.22H130.5Zm4.22-4.22h12.66V12.65h-12.66v12.66Z"/>
    <path fill="#006552" d="M180.52 34.25v-2.6h-2.6v-7.82h2.6v-2.6h10.42V16h5.22v18.24h-15.64Zm2.6-2.6h7.82v-7.82h-7.81v7.82Z"/>
    <path fill="#00805F" d="M179.2 32.94v-2.6h-2.6v-7.82h2.6v-2.6h10.43V14.7h5.21v18.24h-15.63Zm2.62-2.6h7.81v-7.82h-7.81v7.81Z"/>
    <path fill="#009369" d="M177.91 31.65v-2.61h-2.6v-7.82h2.6v-2.6h10.43V13.4h5.2v18.24h-15.63Zm2.61-2.61h7.82v-7.82h-7.82v7.82Z"/>
    <path fill="#E8FF6C" d="M176.6 30.33v-2.6H174V19.9h2.6v-2.6h10.43v-5.22h5.2v18.24H176.6Zm2.6-2.6h7.83V19.9h-7.82v7.82Z"/>
    <path fill="#006552" d="M201.37 34.25v-2.6h-2.61v-7.82h2.6v-2.6h13.03v2.6H217v5.21h-13.03v2.6h10.42v2.61h-13.02Zm2.6-7.82h7.82v-2.6h-7.82v2.6Z"/>
    <path fill="#00805F" d="M200.06 32.94v-2.6h-2.61v-7.82h2.6v-2.6h13.03v2.6h2.6v5.2h-13.02v2.61h10.42v2.61h-13.03Zm2.6-7.82h7.82v-2.6h-7.82v2.6Z"/>
    <path fill="#009369" d="M198.76 31.65v-2.61h-2.6v-7.82h2.6v-2.6h13.03v2.6h2.6v5.21h-13.02v2.61h10.42v2.6h-13.03Zm2.6-7.82h7.82v-2.6h-7.81v2.6Z"/>
    <path fill="#E8FF6C" d="M197.45 30.33v-2.6h-2.6V19.9h2.6v-2.6h13.03v2.6h2.6v5.21h-13.03v2.6h10.43v2.61h-13.03Zm2.6-7.81h7.82v-2.6h-7.82v2.6Z"/>
    <path fill="#006552" d="M5.94 70.41V42.68h23.77v3.96h3.96v11.89H29.7v3.96H13.86v7.92H5.94Zm7.92-11.88h11.89V46.64H13.86v11.89Z"/>
    <path fill="#00805F" d="M3.96 68.43V40.7h23.77v3.96h3.96v11.89h-3.96v3.96H11.88v7.92H3.96Zm7.92-11.88h11.89V44.67H11.88v11.88Z"/>
    <path fill="#009369" d="M1.98 66.45V38.73h23.77v3.96h3.96v11.88h-3.96v3.96H9.9v7.92H1.98ZM9.9 54.57h11.88V42.69H9.9v11.88Z"/>
    <path fill="#E8FF6C" d="M0 64.47V36.74h23.77v3.96h3.96V52.6h-3.96v3.96H7.92v7.92H0ZM7.92 52.6h11.89V40.7H7.92V52.6Z"/>
    <path fill="#006552" d="M47.25 54.57h3.96v3.96h-3.96v11.88h-7.93v-19.8h7.93v3.96Zm15.84-3.96v3.96H49.23v-3.96h13.86Z"/>
    <path fill="#00805F" d="M45.26 52.59h3.97v3.96h-3.97v11.88h-7.92v-19.8h7.92v3.96Zm15.85-3.96v3.96H47.25v-3.96H61.1Z"/>
    <path fill="#009369" d="M43.29 50.6h3.96v3.97h-3.96v11.88h-7.93v-19.8h7.93v3.96Zm15.84-3.95v3.96H45.27v-3.96h13.86Z"/>
    <path fill="#E8FF6C" d="M41.3 48.63h3.96v3.96H41.3v11.88h-7.92v-19.8h7.92v3.96Zm15.85-3.97v3.97H45.26v-3.97h11.89Z"/>
    <path fill="#006552" d="M70.26 70.41v-3.96H66.3V54.57h3.96V50.6h19.8v3.97h3.97v7.92H74.22v3.96h15.84v3.96h-19.8Zm3.96-11.88H86.1v-3.96H74.22v3.96Z"/>
    <path fill="#00805F" d="M68.28 68.43v-3.96h-3.96V52.6h3.96v-3.96h19.8v3.96h3.96v7.92h-19.8v3.96h15.84v3.96h-19.8Zm3.96-11.88h11.88v-3.96H72.24v3.96Z"/>
    <path fill="#009369" d="M66.3 66.45v-3.96h-3.96V50.6h3.96v-3.96h19.8v3.96h3.97v7.93H70.26v3.96H86.1v3.96H66.3Zm3.96-11.88h11.88V50.6H70.26v3.97Z"/>
    <path fill="#E8FF6C" d="M64.32 64.47v-3.96h-3.97V48.63h3.97v-3.97h19.8v3.97h3.96v7.92h-19.8v3.96h15.84v3.96h-19.8Zm3.96-11.88h11.88v-3.96H68.28v3.96Z"/>
    <path fill="#006552" d="M102.7 70.41v-3.96h-3.96V54.57h3.96V50.6h23.77v3.97h-19.8v11.88h19.8v3.96H102.7Z"/>
    <path fill="#00805F" d="M100.72 68.43v-3.96h-3.96V52.6h3.96v-3.96h23.77v3.96h-19.8v11.88h19.8v3.96h-23.77Z"/>
    <path fill="#009369" d="M98.74 66.45v-3.96h-3.96V50.6h3.96v-3.96h23.77v3.96H102.7V62.5h19.8v3.96H98.75Z"/>
    <path fill="#E8FF6C" d="M96.76 64.47v-3.96H92.8V48.63h3.96v-3.97h23.77v3.97h-19.8V60.5h19.8v3.96H96.76Z"/>
    <path fill="#006552" d="M138.91 46.65v-3.96h7.93v3.96h-7.93ZM131 70.4v-3.96h7.92V54.57h-3.96v-3.96h11.89v15.84h7.92v3.96h-23.77Z"/>
    <path fill="#00805F" d="M136.93 44.66V40.7h7.92v3.96h-7.92Zm-7.92 23.77v-3.96h7.92V52.6h-3.96v-3.96h11.88v15.84h7.93v3.96H129Z"/>
    <path fill="#009369" d="M134.95 42.69v-3.96h7.92v3.96h-7.92Zm-7.92 23.76V62.5h7.92V50.61H131v-3.96h11.88v15.84h7.93v3.96h-23.77Z"/>
    <path fill="#E8FF6C" d="M132.97 40.7v-3.96h7.92v3.96h-7.92Zm-7.92 23.77v-3.96h7.92V48.63H129v-3.97h11.88v15.85h7.92v3.96h-23.76Z"/>
    <path fill="#006552" d="M161.54 70.41v-3.96h-3.96V54.57h3.96V50.6h19.8v3.97h3.97v11.88h-3.96v3.96h-19.8Zm3.97-3.96h11.88V54.57H165.5v11.88Z"/>
    <path fill="#00805F" d="M159.56 68.43v-3.96h-3.96V52.6h3.97v-3.96h19.8v3.96h3.96v11.88h-3.96v3.96h-19.8Zm3.97-3.96h11.88V52.6h-11.88v11.88Z"/>
    <path fill="#009369" d="M157.59 66.45v-3.96h-3.97V50.6h3.97v-3.96h19.8v3.96h3.96V62.5h-3.96v3.96h-19.8Zm3.96-3.96h11.88V50.6h-11.88V62.5Z"/>
    <path fill="#E8FF6C" d="M155.6 64.47v-3.96h-3.96V48.63h3.96v-3.97h19.81v3.97h3.96V60.5h-3.96v3.96h-19.8Zm3.97-3.96h11.88V48.63h-11.88V60.5Z"/>
    <path fill="#006552" d="M189.27 70.41v-3.96h19.8v-3.96h-15.84v-3.96h-3.96v-3.96h3.96V50.6h19.8v3.97H197.2v3.96h15.85v3.96H217v3.96h-3.96v3.96h-23.77Z"/>
    <path fill="#00805F" d="M187.3 68.43v-3.96h19.8v-3.96h-15.85v-3.96h-3.96v-3.96h3.96v-3.96h19.81v3.96h-15.84v3.96h15.84v3.96h3.96v3.96h-3.96v3.96h-23.77Z"/>
    <path fill="#009369" d="M185.31 66.45v-3.96h19.8v-3.96h-15.84v-3.96h-3.96V50.6h3.96v-3.96h19.8v3.96h-15.84v3.97h15.85v3.96h3.96v3.96h-3.96v3.96H185.3Z"/>
    <path fill="#E8FF6C" d="M183.33 64.47v-3.96h19.8v-3.96H187.3v-3.96h-3.96v-3.96h3.96v-3.97h19.8v3.97h-15.84v3.96h15.85v3.96h3.96v3.96h-3.96v3.96h-23.77Z"/>
  </symbol>
</svg>